<svg xmlns="http://www.w3.org/2000/svg" version="1.1" xmlns:xlink="http://www.w3.org/1999/xlink" xmlns:svgjs="http://svgjs.com/svgjs" width="682.667" height="682.667"><svg xmlns="http://www.w3.org/2000/svg" width="682.667" height="682.667" viewBox="0 0 512 512" preserveAspectRatio="xMidYMid meet"><path d="M241.5 1.5c-8.3 1.6-16 4.2-23.4 8-8.8 4.4-154 88.3-160 92.5-15.4 10.4-27.2 27.6-32.3 47l-2.3 8.5V256v98.5l2.3 8.5c5.1 19.4 16.9 36.6 32.3 47 6 4.2 151.2 88.1 160 92.5 24.2 12.3 51.6 12.3 75.8 0 8.8-4.4 154-88.3 160-92.5 15.4-10.4 27.2-27.6 32.3-47l2.3-8.5V256v-98.5l-2.3-8.5c-5.1-19.4-16.9-36.6-32.3-47-6.5-4.5-151.8-88.4-160.5-92.8-16.6-8.2-34.7-10.9-51.9-7.7zm29 41.2c5.7 2.2 154.6 87.8 161.7 93 5.6 4.1 10.8 10.9 14 18.3l2.3 5.5.3 93.5-.8 98.3c-.5 2.7-2.2 7.3-3.6 10.4-5.4 11.3-6.6 12.1-91.5 61L270 469.6c-6.6 2.6-21.9 2.4-28.5-.2-6-2.4-154.9-88.2-161.7-93.1-5.5-4-10.5-10.5-13.9-18.3l-2.4-5.5-.3-93.5.7-98.2c1.7-7.6 6.2-15.8 11.6-21.2 4.1-4.1 20.9-14.2 83.6-50.4l83-46.6c2.4-.8 5.3-1.7 6.4-2 4-1 17.1.2 22 2.1zm-127 131.4c-11.2 4.2-16.5 16.7-11.6 27.5 1.5 3.3 7.8 9.2 31.4 29l29.6 25.4c0 .3-13.3 11.7-29.6 25.4-25 21.1-29.8 25.5-31.5 29.4-4.2 9.4-.3 20.9 8.7 25.6 4.9 2.5 13.6 2.7 18 .4 1.7-.9 20.6-16.5 42.2-34.8 42.1-35.6 43.3-36.9 43.3-46s-1.2-10.4-43.3-46l-42-34.6c-3.8-2-11.5-2.6-15.2-1.3zm121 126.3c-9 4-14 14.3-11.5 23.7 1.5 5.6 8 12.3 13.5 13.8 2.7.7 19.8 1.1 51.5 1.1h47.5l5.2-2.4c15-7 15-28.9-.2-35.7-3.7-1.7-7.6-1.9-53.5-1.8-39 0-50.1.3-52.5 1.3z"></path></svg><style>@media (prefers-color-scheme: light) { :root { filter: none; } }
@media (prefers-color-scheme: dark) { :root { filter: invert(100%); } }
</style></svg>